<svg width="42" height="42" fill="none" xmlns="http://www.w3.org/2000/svg"><circle cx="21" cy="21" r="21" fill="url(#a)"/><path d="M21.578 12.86c-1.823 0-3.234.687-4.234 2.062-1 1.364-1.5 3.27-1.5 5.719 0 5.093 1.911 7.64 5.734 7.64 1.604 0 3.547-.4 5.828-1.203v4.063c-1.875.78-3.968 1.172-6.281 1.172-3.323 0-5.865-1.006-7.625-3.016-1.76-2.021-2.64-4.917-2.64-8.688 0-2.375.432-4.453 1.296-6.234.865-1.792 2.104-3.162 3.719-4.11 1.625-.958 3.526-1.437 5.703-1.437 2.219 0 4.448.537 6.688 1.61l-1.563 3.937a25.871 25.871 0 0 0-2.578-1.063 7.69 7.69 0 0 0-2.547-.453Z" fill="#F3F3F3"/><defs><radialGradient id="a" cx="0" cy="0" r="1" gradientUnits="userSpaceOnUse" gradientTransform="matrix(0 21 -21 0 21 21)"><stop stop-color="#2D4FB6"/><stop offset=".563" stop-color="#334572"/><stop offset="1" stop-color="#091528"/></radialGradient></defs></svg>